<svg xmlns="http://www.w3.org/2000/svg" viewBox="0 0 64 64" role="img" aria-labelledby="title desc">
  <title id="title">Elytics mark</title>
  <desc id="desc">CO2 electrolysis analytics mark with a cell, molecule, and signal line.</desc>
  <defs>
    <linearGradient id="panel" x1="8" y1="8" x2="56" y2="56" gradientUnits="userSpaceOnUse">
      <stop offset="0" stop-color="#0b2a54"/>
      <stop offset="1" stop-color="#164b86"/>
    </linearGradient>
    <linearGradient id="signal" x1="16" y1="48" x2="52" y2="24" gradientUnits="userSpaceOnUse">
      <stop offset="0" stop-color="#75d0ff"/>
      <stop offset="1" stop-color="#9ee68f"/>
    </linearGradient>
  </defs>
  <rect width="64" height="64" rx="10" fill="url(#panel)"/>
  <rect x="15" y="14" width="34" height="36" rx="6" fill="#ffffff" fill-opacity="0.1" stroke="#d9ecff" stroke-opacity="0.55" stroke-width="1.5"/>
  <path d="M25 18v28M39 18v28" stroke="#d9ecff" stroke-width="3" stroke-linecap="round"/>
  <path d="M28 25h8M28 33h8M28 41h8" stroke="#d9ecff" stroke-width="2" stroke-linecap="round" opacity="0.85"/>
  <path d="M13 47c6-8 10-6 15-11 5-5 9-13 18-14" fill="none" stroke="url(#signal)" stroke-width="4" stroke-linecap="round"/>
  <circle cx="16" cy="47" r="3" fill="#75d0ff"/>
  <circle cx="31" cy="34" r="3" fill="#8ee8c1"/>
  <circle cx="48" cy="22" r="3" fill="#9ee68f"/>
  <circle cx="47" cy="45" r="5" fill="#ffffff" fill-opacity="0.95"/>
  <circle cx="54" cy="39" r="3.4" fill="#ffffff" fill-opacity="0.86"/>
  <circle cx="55" cy="51" r="3.4" fill="#ffffff" fill-opacity="0.86"/>
  <path d="M50.8 42.5l2.7-2.2M50.7 47.6l3.1 2.4" stroke="#0b2a54" stroke-width="1.5" stroke-linecap="round"/>
  <text x="47" y="47.2" text-anchor="middle" font-family="Segoe UI, Arial, sans-serif" font-size="5.5" font-weight="700" fill="#0b2a54">CO2</text>
</svg>
